<svg width="634" height="297" viewBox="0 0 634 297" fill="none" xmlns="http://www.w3.org/2000/svg">
<g id="404 bg" filter="url(#filter0_d)">
<path id="4O4 Copy" fill-rule="evenodd" clip-rule="evenodd" d="M210.402 131.9C213.102 131.9 214.902 133.7 214.902 136.4V177.2C214.902 179.9 213.102 181.7 210.402 181.7H198.102C197.202 181.7 196.602 182.3 196.602 183.2V228.5C196.602 231.2 194.802 233 192.102 233H144.702C142.002 233 140.202 231.2 140.202 228.5V183.2C140.202 182.3 139.602 181.7 138.702 181.7H45.1016C42.4016 181.7 40.6016 179.9 40.6016 177.2V145.4C40.6016 143.3 40.9016 141.8 41.8016 139.7L90.7016 26.2996C91.6016 23.8996 93.4016 22.9996 95.8016 22.9996H146.502C149.802 22.9996 151.002 25.3996 149.802 28.3996L106.302 130.1C106.002 131 106.302 131.9 107.202 131.9H138.702C139.602 131.9 140.202 131.3 140.202 130.4V70.6996C140.202 67.9996 142.002 66.1996 144.702 66.1996H192.102C194.802 66.1996 196.602 67.9996 196.602 70.6996V130.4C196.602 131.3 197.202 131.9 198.102 131.9H210.402ZM319.302 236.6C268.902 236.6 235.302 204.5 235.302 156.2V99.7996C235.302 52.3996 268.902 20.5996 319.302 20.5996C370.002 20.5996 403.602 52.3996 403.602 99.7996V156.2C403.602 204.5 370.002 236.6 319.302 236.6ZM319.302 188.3C336.102 188.3 347.202 176.3 347.202 158V99.1996C347.202 80.8996 336.102 68.8996 319.302 68.8996C302.802 68.8996 291.702 80.8996 291.702 99.1996V158C291.702 176.3 302.802 188.3 319.302 188.3ZM589.002 131.9C591.702 131.9 593.502 133.7 593.502 136.4V177.2C593.502 179.9 591.702 181.7 589.002 181.7H576.702C575.802 181.7 575.202 182.3 575.202 183.2V228.5C575.202 231.2 573.402 233 570.702 233H523.302C520.602 233 518.802 231.2 518.802 228.5V183.2C518.802 182.3 518.202 181.7 517.302 181.7H423.702C421.002 181.7 419.202 179.9 419.202 177.2V145.4C419.202 143.3 419.502 141.8 420.402 139.7L469.302 26.2996C470.202 23.8996 472.002 22.9996 474.402 22.9996H525.102C528.402 22.9996 529.602 25.3996 528.402 28.3996L484.902 130.1C484.602 131 484.902 131.9 485.802 131.9H517.302C518.202 131.9 518.802 131.3 518.802 130.4V70.6996C518.802 67.9996 520.602 66.1996 523.302 66.1996H570.702C573.402 66.1996 575.202 67.9996 575.202 70.6996V130.4C575.202 131.3 575.802 131.9 576.702 131.9H589.002Z" fill="#151515"/>
<mask id="mask0" mask-type="alpha" maskUnits="userSpaceOnUse" x="40" y="20" width="554" height="217">
<path id="4O4 Copy_2" fill-rule="evenodd" clip-rule="evenodd" d="M210.402 131.9C213.102 131.9 214.902 133.7 214.902 136.4V177.2C214.902 179.9 213.102 181.7 210.402 181.7H198.102C197.202 181.7 196.602 182.3 196.602 183.2V228.5C196.602 231.2 194.802 233 192.102 233H144.702C142.002 233 140.202 231.2 140.202 228.5V183.2C140.202 182.3 139.602 181.7 138.702 181.7H45.1016C42.4016 181.7 40.6016 179.9 40.6016 177.2V145.4C40.6016 143.3 40.9016 141.8 41.8016 139.7L90.7016 26.2996C91.6016 23.8996 93.4016 22.9996 95.8016 22.9996H146.502C149.802 22.9996 151.002 25.3996 149.802 28.3996L106.302 130.1C106.002 131 106.302 131.9 107.202 131.9H138.702C139.602 131.9 140.202 131.3 140.202 130.4V70.6996C140.202 67.9996 142.002 66.1996 144.702 66.1996H192.102C194.802 66.1996 196.602 67.9996 196.602 70.6996V130.4C196.602 131.3 197.202 131.9 198.102 131.9H210.402ZM319.302 236.6C268.902 236.6 235.302 204.5 235.302 156.2V99.7996C235.302 52.3996 268.902 20.5996 319.302 20.5996C370.002 20.5996 403.602 52.3996 403.602 99.7996V156.2C403.602 204.5 370.002 236.6 319.302 236.6ZM319.302 188.3C336.102 188.3 347.202 176.3 347.202 158V99.1996C347.202 80.8996 336.102 68.8996 319.302 68.8996C302.802 68.8996 291.702 80.8996 291.702 99.1996V158C291.702 176.3 302.802 188.3 319.302 188.3ZM589.002 131.9C591.702 131.9 593.502 133.7 593.502 136.4V177.2C593.502 179.9 591.702 181.7 589.002 181.7H576.702C575.802 181.7 575.202 182.3 575.202 183.2V228.5C575.202 231.2 573.402 233 570.702 233H523.302C520.602 233 518.802 231.2 518.802 228.5V183.2C518.802 182.3 518.202 181.7 517.302 181.7H423.702C421.002 181.7 419.202 179.9 419.202 177.2V145.4C419.202 143.3 419.502 141.8 420.402 139.7L469.302 26.2996C470.202 23.8996 472.002 22.9996 474.402 22.9996H525.102C528.402 22.9996 529.602 25.3996 528.402 28.3996L484.902 130.1C484.602 131 484.902 131.9 485.802 131.9H517.302C518.202 131.9 518.802 131.3 518.802 130.4V70.6996C518.802 67.9996 520.602 66.1996 523.302 66.1996H570.702C573.402 66.1996 575.202 67.9996 575.202 70.6996V130.4C575.202 131.3 575.802 131.9 576.702 131.9H589.002Z" fill="white"/>
</mask>
<g mask="url(#mask0)">
<path id="Rectangle 12" fill-rule="evenodd" clip-rule="evenodd" d="M364 -30H662V294H364V-30Z" fill="#68BD4A"/>
<path id="Oval 5" fill-rule="evenodd" clip-rule="evenodd" d="M266.5 264C390.488 264 491 163.712 491 40C491 -83.7118 390.488 -184 266.5 -184C142.512 -184 42 -83.7118 42 40C42 163.712 142.512 264 266.5 264Z" fill="#E64933"/>
<path id="Rectangle 11" fill-rule="evenodd" clip-rule="evenodd" d="M37 -37L244.932 -35.1547L359.178 203.228C365.644 216.718 369 231.487 369 246.447V292L37 285.801V-37Z" fill="#FCB43D"/>
<path id="Combined Shape" fill-rule="evenodd" clip-rule="evenodd" d="M204 208.5C204 279.469 146.021 337 74.5 337C2.97913 337 -55 279.469 -55 208.5C-55 137.531 2.97913 80 74.5 80C146.021 80 204 137.531 204 208.5ZM114.048 208.5C114.048 230.173 96.3417 247.743 74.5 247.743C52.6583 247.743 34.9521 230.173 34.9521 208.5C34.9521 186.827 52.6583 169.257 74.5 169.257C96.3417 169.257 114.048 186.827 114.048 208.5Z" fill="#E64933"/>
</g>
</g>
<defs>
<filter id="filter0_d" x="0.601562" y="0.599609" width="632.9" height="296" filterUnits="userSpaceOnUse" color-interpolation-filters="sRGB">
<feFlood flood-opacity="0" result="BackgroundImageFix"/>
<feColorMatrix in="SourceAlpha" type="matrix" values="0 0 0 0 0 0 0 0 0 0 0 0 0 0 0 0 0 0 127 0"/>
<feOffset dy="20"/>
<feGaussianBlur stdDeviation="20"/>
<feColorMatrix type="matrix" values="0 0 0 0 0 0 0 0 0 0 0 0 0 0 0 0 0 0 1 0"/>
<feBlend mode="normal" in2="BackgroundImageFix" result="effect1_dropShadow"/>
<feBlend mode="normal" in="SourceGraphic" in2="effect1_dropShadow" result="shape"/>
</filter>
</defs>
</svg>
